/* XPM */
static char * menu_inactive_xpm[] = {
"16 20 3 1",
" 	c None",
".	c #484432",
"+	c #FFFFFF",
"................",
"................",
"................",
"................",
"................",
"................",
"................",
"................",
"......++++......",
"......++++......",
"......++++......",
"......++++......",
"................",
"................",
"................",
"................",
"................",
"................",
"................",
"................"};
